<svg width="245" height="37" viewBox="0 0 245 37" fill="none" xmlns="http://www.w3.org/2000/svg">
<path d="M183.489 18.5336C183.489 24.4101 179.592 28.4885 174.529 28.4885C171.958 28.4885 169.507 27.3689 168.463 25.6149H168.302V36.9646H164.28V9.09695H167.937L168.178 11.5764H168.299C169.344 9.8174 171.794 8.61768 174.526 8.61768C179.632 8.61768 183.489 12.6561 183.489 18.5336ZM179.391 18.5336C179.391 14.5311 177.06 12.0957 173.766 12.0957C170.672 12.0957 168.3 14.3351 168.3 17.0937V19.9724C168.3 22.7711 170.672 24.9704 173.766 24.9704C177.06 24.9704 179.391 22.571 179.391 18.5336V18.5336Z" fill="white"/>
<path d="M202.227 9.07839L201.986 11.5589H201.867C200.821 9.79884 198.37 8.59912 195.597 8.59912C190.573 8.59912 186.634 12.6386 186.634 18.5181C186.634 24.3977 190.573 28.473 195.597 28.473C198.37 28.473 200.821 27.2733 201.867 25.5133H201.988L202.229 27.9927H205.846V9.07839H202.227ZM201.825 19.957C201.825 22.7567 199.493 24.956 196.359 24.956C193.103 24.956 190.731 22.5565 190.731 18.5171C190.731 14.5146 193.103 12.0772 196.359 12.0772C199.493 12.0772 201.825 14.3176 201.825 17.0772V19.957Z" fill="white"/>
<path d="M222.469 24.8793V28.1993C221.599 28.3985 220.708 28.4926 219.815 28.4795C215.277 28.4795 213.063 26.4393 213.063 21.3202V12.5208H209.727V9.08076H213.063V4.35986H217.085V9.08076H222.311V12.5208H217.085V21.2001C217.085 24.1599 218.09 25.0394 220.703 25.0394C221.295 25.0455 221.887 24.9919 222.469 24.8793V24.8793Z" fill="white"/>
<path d="M244.143 16.0787V27.998H240.121V17.4786C240.121 13.5992 238.677 12.1594 236.099 12.1594C233.165 12.1594 231.236 13.9995 231.236 17.7187V27.998H227.214V0H231.236V11.519H231.397C232.642 9.67988 234.733 8.59921 237.345 8.59921C241.49 8.59921 244.143 11.2788 244.143 16.0787Z" fill="white"/>
<path d="M0 36.521V8.65334H3.66832L3.92614 11.2642L4.14374 10.9399C5.26476 9.26295 7.66046 8.1792 10.248 8.1792C15.4416 8.1792 19.211 12.351 19.211 18.0982C19.211 23.868 15.4416 28.0531 10.248 28.0531C7.76256 28.0531 5.3679 26.9673 4.29019 25.352L4.03443 24.9681V36.521H0ZM9.48483 11.6747C6.42807 11.6747 4.03443 13.8648 4.03443 16.6594V19.5329C4.03443 22.3285 6.42807 24.5176 9.48483 24.5176C12.8933 24.5176 15.0961 21.996 15.0961 18.0951C15.0961 14.1942 12.8933 11.6747 9.48483 11.6747Z" fill="white"/>
<path d="M24.3698 27.5725V8.65401H28.0071L28.3031 11.6898L28.5207 11.2597C29.4571 9.4032 31.3619 8.29482 33.6194 8.29482C34.2638 8.28712 34.9043 8.39561 35.5098 8.61502H35.516V12.1885H35.5047C34.9462 12.1116 34.3833 12.0714 33.8195 12.0685C30.2296 12.0685 28.4093 14.0676 28.4093 18.0116V27.5725H24.3698Z" fill="white"/>
<path d="M48.0493 28.0531C42.3442 28.0531 38.2025 23.8649 38.2025 18.0982C38.2025 12.351 42.3442 8.1792 48.0493 8.1792C53.7545 8.1792 57.8961 12.351 57.8961 18.0982C57.8961 23.8649 53.7545 28.0531 48.0493 28.0531ZM48.0493 11.6716C44.6749 11.6716 42.3174 14.3133 42.3174 18.0951C42.3174 21.9601 44.6213 24.5607 48.0493 24.5607C51.4774 24.5607 53.7802 21.9632 53.7802 18.0951C53.7802 14.3133 51.4237 11.6768 48.0493 11.6768V11.6716Z" fill="white"/>
<path d="M71.7164 37.0002C66.8847 37.0002 63.3268 34.5936 62.4347 30.7204V30.7112L66.2268 29.7075V29.7157C67.026 32.1849 68.9906 33.5448 71.7576 33.5448C75.3176 33.5448 77.5329 31.2869 77.5329 27.6416V24.6059L77.2792 24.965C76.1056 26.6256 73.746 27.657 71.1192 27.657C65.9483 27.657 62.1954 23.5693 62.1954 17.9381C62.1954 12.3746 66.0319 8.1792 71.1192 8.1792C73.7449 8.1792 76.1726 9.26398 77.307 10.9409L77.5246 11.2632L77.7773 8.65847H81.4105V27.5215C81.4023 33.3682 77.6907 37.0002 71.7164 37.0002ZM71.9164 11.6747C68.6163 11.6747 66.3062 14.2507 66.3062 17.935C66.3062 21.6194 68.6132 24.1953 71.9164 24.1953C74.9732 24.1953 77.3668 22.0237 77.3668 19.2517V16.6142C77.3668 13.8422 74.9732 11.6747 71.9164 11.6747Z" fill="white"/>
<path d="M95.2356 28.0531C90.041 28.0531 86.2716 23.8649 86.2716 18.0982C86.2716 12.351 90.041 8.1792 95.2356 8.1792C97.8448 8.1792 100.257 9.26295 101.38 10.9399L101.598 11.2642L101.85 8.65847H105.484V27.5739H101.847L101.595 24.9681L101.377 25.2924C100.257 26.9684 97.8448 28.0531 95.2356 28.0531ZM95.9978 11.6768C92.6419 11.6768 90.3875 14.2579 90.3875 18.1003C90.3875 22.0001 92.5893 24.5227 95.9978 24.5227C99.1051 24.5227 101.448 22.3798 101.448 19.5381V16.6645C101.448 13.8617 99.0535 11.6768 95.9978 11.6768Z" fill="white"/>
<path d="M120.914 28.0519C116.242 28.0519 114.159 25.8433 114.159 20.8905V12.1107H110.827V8.65414H114.159V3.94043H118.194V8.65414H123.413V12.1107H118.194V20.7704C118.194 23.6307 119.103 24.5964 121.797 24.5964C122.389 24.6021 122.98 24.5485 123.562 24.4363H123.574V27.7738H123.567C122.697 27.9707 121.806 28.064 120.914 28.0519Z" fill="white"/>
<path d="M137.127 28.0533C131.377 28.0533 127.361 24.0077 127.361 18.2143C127.361 12.3984 131.502 8.17627 137.208 8.17627C142.641 8.17627 146.291 11.9058 146.291 17.4559C146.291 17.9911 146.251 18.5256 146.171 19.0549V19.0641H131.436L131.451 19.217C131.807 22.6119 133.958 24.6378 137.208 24.6378C139.488 24.6378 141.221 23.631 142.217 21.7263V21.7191L145.849 22.6828V22.693C144.577 25.9997 141.236 28.0533 137.127 28.0533ZM137.208 11.4727C134.339 11.4727 132.308 13.1065 131.639 15.9565L131.599 16.1269H142.257L142.232 15.9668C141.771 13.0686 139.987 11.4717 137.208 11.4717V11.4727Z" fill="white"/>
</svg>
